<svg id="eom5XPcrvJf1" xmlns="http://www.w3.org/2000/svg" xmlns:xlink="http://www.w3.org/1999/xlink" viewBox="0 0 50 40" shape-rendering="geometricPrecision" text-rendering="geometricPrecision" width="50" height="40" style="background-color:transparent"><line x1="-22.753509" y1="0" x2="22.753509" y2="0" transform="matrix(1 0.000654-.000654 1 27.246496 31.09054)" fill="none" stroke="#3f5787"/><line x1="-22.753509" y1="0" x2="22.753509" y2="0" transform="matrix(1 0.000654-.000654 1 27.246487 16.197373)" fill="none" stroke="#3f5787"/><line x1="-22.753509" y1="0" x2="22.753509" y2="0" transform="matrix(1 0.000654-.000654 1 27.246487 23.683568)" fill="none" stroke="#3f5787"/><line x1="-22.753509" y1="0" x2="22.753509" y2="0" transform="matrix(1 0.000654-.000654 1 27.246496 8.629698)" fill="none" stroke="#3f5787"/><line x1="-22.753509" y1="0" x2="22.753509" y2="0" transform="matrix(1 0.000654-.000654 1 27.246487 1.633771)" fill="none" stroke="#3f5787"/><line x1="-22.753509" y1="0" x2="22.753509" y2="0" transform="matrix(1 0.000654-.000654 1 27.246487 38.452694)" fill="none" stroke="#3f5787"/><line x1="0" y1="-18.922589" x2="0" y2="18.92259" transform="translate(5.492983 20.009054)" fill="none" stroke="#000" stroke-width="2"/><line x1="0" y1="-18.394586" x2="0" y2="18.394587" transform="translate(15.261186 20.043233)" fill="none" stroke="#3f5787"/><line x1="0" y1="-18.394586" x2="0" y2="18.394587" transform="translate(24.522059 20.537057)" fill="none" stroke="#3f5787"/><line x1="0" y1="-18.394586" x2="0" y2="18.394587" transform="translate(33.62962 19.999999)" fill="none" stroke="#3f5787"/><line x1="0" y1="-18.394586" x2="0" y2="18.394587" transform="translate(42.714591 20.043233)" fill="none" stroke="#3f5787"/><ellipse rx="2.489814" ry="2.761431" transform="matrix(1.218182 0 0 1.131148 19.741896 36.876413)" fill="#fb4b37" stroke-width="0"/><ellipse rx="2.489814" ry="2.761431" transform="matrix(1.218182 0 0 1.131148 19.741896 16.075665)" fill="#fb4b37" stroke-width="0"/><ellipse rx="2.489814" ry="2.761431" transform="matrix(1.218182 0 0 1.131148 29.014079 9.370761)" fill="#fb4b37" stroke-width="0"/><ellipse rx="2.489814" ry="2.761431" transform="matrix(1.218182 0 0 1.131148 19.741896 3.123587)" fill="#fb4b37" stroke-width="0"/><ellipse rx="1.901317" ry="2.207169" transform="translate(2.229516 24.182498)" fill="none" stroke="#000" stroke-width="0.6"/><ellipse rx="1.901317" ry="2.207169" transform="translate(2.229516 31.182498)" fill="none" stroke="#000" stroke-width="0.6"/></svg>
