<svg id="eD95Y7S0Pr31" xmlns="http://www.w3.org/2000/svg" xmlns:xlink="http://www.w3.org/1999/xlink" viewBox="0 0 50 40" shape-rendering="geometricPrecision" text-rendering="geometricPrecision" width="50" height="40" style="background-color:transparent"><line x1="-22.753509" y1="0" x2="22.753509" y2="0" transform="matrix(1 0.000654-.000654 1 27.246496 31.09054)" fill="none" stroke="#3f5787"/><line x1="-22.753509" y1="0" x2="22.753509" y2="0" transform="matrix(1 0.000654-.000654 1 27.246487 16.197373)" fill="none" stroke="#3f5787"/><line x1="-22.753509" y1="0" x2="22.753509" y2="0" transform="matrix(1 0.000654-.000654 1 27.246487 23.683568)" fill="none" stroke="#3f5787"/><line x1="-22.753509" y1="0" x2="22.753509" y2="0" transform="matrix(1 0.000654-.000654 1 27.246496 8.629698)" fill="none" stroke="#3f5787"/><line x1="-22.753509" y1="0" x2="22.753509" y2="0" transform="matrix(1 0.000654-.000654 1 27.246487 1.633771)" fill="none" stroke="#3f5787"/><line x1="-22.753509" y1="0" x2="22.753509" y2="0" transform="matrix(1 0.000654-.000654 1 27.246487 38.452694)" fill="none" stroke="#3f5787"/><line x1="0" y1="-18.922589" x2="0" y2="18.92259" transform="translate(5.492983 20.009054)" fill="none" stroke="#000" stroke-width="2"/><line x1="0" y1="-18.394586" x2="0" y2="18.394587" transform="translate(15.261186 20.043233)" fill="none" stroke="#3f5787"/><line x1="0" y1="-18.394586" x2="0" y2="18.394587" transform="translate(24.522059 20.537057)" fill="none" stroke="#3f5787"/><line x1="0" y1="-18.394586" x2="0" y2="18.394587" transform="translate(33.62962 19.999999)" fill="none" stroke="#3f5787"/><line x1="0" y1="-18.394586" x2="0" y2="18.394587" transform="translate(42.714591 20.043233)" fill="none" stroke="#3f5787"/><ellipse rx="2.489814" ry="2.761431" transform="matrix(1.218182 0 0 1.131148 28.894729 16.212248)" fill="#fb4b37" stroke-width="0"/><rect width="6.428248" height="29.787234" rx="0" ry="0" transform="matrix(1 0 0 0.31564 16.625169 0)" fill="#fb4b37" stroke-width="0"/><ellipse rx="3.214124" ry="3.323675" transform="matrix(1 0 0 1.173504 19.839293 8.629698)" fill="#fb4b37" stroke-width="0"/><line x1="-1.539158" y1="-1.937528" x2="1.539158" y2="1.937528" transform="matrix(1 0 0 0.747328 2.229516 38.062472)" fill="none" stroke="#000" stroke-width="0.8"/><line x1="-1.539158" y1="-1.937528" x2="1.539158" y2="1.937528" transform="matrix(1 0 0 0.747328 2.229516 31.062472)" fill="none" stroke="#000" stroke-width="0.8"/><line x1="-1.539158" y1="-1.937528" x2="1.539158" y2="1.937528" transform="matrix(1 0 0 0.747328 2.229516 24.062472)" fill="none" stroke="#000" stroke-width="0.8"/><line x1="1.539158" y1="-1.937528" x2="-1.539158" y2="1.937528" transform="matrix(.999998 0 0 0.747328 2.229516 24.062472)" fill="none" stroke="#000" stroke-width="0.8"/><line x1="1.539158" y1="-1.937528" x2="-1.539158" y2="1.937528" transform="matrix(.999998 0 0 0.747328 2.229516 31.062472)" fill="none" stroke="#000" stroke-width="0.8"/><line x1="1.539158" y1="-1.937528" x2="-1.539158" y2="1.937528" transform="matrix(.999998 0 0 0.747328 2.229516 38.062472)" fill="none" stroke="#000" stroke-width="0.8"/></svg>
